HIERARCHY
ROOT Hips
{
  OFFSET 0.0502701 92.146 0
  CHANNELS 6 Xposition Yposition Zposition Zrotation Xrotation Yrotation
  JOINT Bip01_Pelvis
  {
    OFFSET 0 0 0
    CHANNELS 6 Xposition Yposition Zposition Zrotation Xrotation Yrotation
    JOINT BN_Tai_01
    {
      OFFSET -4.6544 -2.06234 0
      CHANNELS 6 Xposition Yposition Zposition Zrotation Xrotation Yrotation
      JOINT BN_Tai_R_01
      {
        OFFSET 10.2279 -0.119812 3.68897
        CHANNELS 6 Xposition Yposition Zposition Zrotation Xrotation Yrotation
        JOINT BN_Tai_R_02
        {
          OFFSET 15.0421 0 1.52588e-005
          CHANNELS 6 Xposition Yposition Zposition Zrotation Xrotation Yrotation
          End Site
          {
            OFFSET 0 0 0
          }
        }
      }
      JOINT BN_Tai_L_01
      {
        OFFSET 10.2279 -0.119797 -3.68907
        CHANNELS 6 Xposition Yposition Zposition Zrotation Xrotation Yrotation
        JOINT BN_Tai_L_02
        {
          OFFSET 15.0421 0 0
          CHANNELS 6 Xposition Yposition Zposition Zrotation Xrotation Yrotation
          End Site
          {
            OFFSET 0 0 0
          }
        }
      }
    }
    JOINT Bip01_Spine
    {
      OFFSET 2.7319 1.49192 0
      CHANNELS 6 Xposition Yposition Zposition Zrotation Xrotation Yrotation
      JOINT Bip01_R_Thigh
      {
        OFFSET -2.85206 -1.24717 -6.20578
        CHANNELS 6 Xposition Yposition Zposition Zrotation Xrotation Yrotation
        JOINT Bip01_R_Calf
        {
          OFFSET 6.73247 0 0
          CHANNELS 6 Xposition Yposition Zposition Zrotation Xrotation Yrotation
          JOINT Bip01_R_HorseLink
          {
            OFFSET 8.08523 0 0
            CHANNELS 6 Xposition Yposition Zposition Zrotation Xrotation Yrotation
            JOINT Bip01_R_Foot
            {
              OFFSET 8.97518 0 0
              CHANNELS 6 Xposition Yposition Zposition Zrotation Xrotation Yrotation
              JOINT BN_Toe_R_30
              {
                OFFSET 1.58762 -0.234982 -0.295153
                CHANNELS 6 Xposition Yposition Zposition Zrotation Xrotation Yrotation
                JOINT BN_Toe_R_31
                {
                  OFFSET 3.03849 0 0
                  CHANNELS 6 Xposition Yposition Zposition Zrotation Xrotation Yrotation
                  End Site
                  {
                    OFFSET 0 0 0
                  }
                }
              }
              JOINT BN_Toe_R_00
              {
                OFFSET 1.65463 0.933666 1.02414
                CHANNELS 6 Xposition Yposition Zposition Zrotation Xrotation Yrotation
                JOINT BN_Toe_R_01
                {
                  OFFSET 3.51775 0 0
                  CHANNELS 6 Xposition Yposition Zposition Zrotation Xrotation Yrotation
                  End Site
                  {
                    OFFSET 0 0 0
                  }
                }
              }
              JOINT BN_Toe_R_20
              {
                OFFSET 1.47309 1.0106 -1.16708
                CHANNELS 6 Xposition Yposition Zposition Zrotation Xrotation Yrotation
                JOINT BN_Toe_R_21
                {
                  OFFSET 3.94896 0 0
                  CHANNELS 6 Xposition Yposition Zposition Zrotation Xrotation Yrotation
                  End Site
                  {
                    OFFSET 0 0 0
                  }
                }
              }
              JOINT BN_Toe_R_10
              {
                OFFSET 1.07522 1.64225 0.0223596
                CHANNELS 6 Xposition Yposition Zposition Zrotation Xrotation Yrotation
                JOINT BN_Toe_R_11
                {
                  OFFSET 4.09655 0 0
                  CHANNELS 6 Xposition Yposition Zposition Zrotation Xrotation Yrotation
                  End Site
                  {
                    OFFSET 0 0 0
                  }
                }
              }
              JOINT Bip01_R_Toe0
              {
                OFFSET 2.04238 1.88275 0
                CHANNELS 6 Xposition Yposition Zposition Zrotation Xrotation Yrotation
                End Site
                {
                  OFFSET 0 0 0
                }
              }
            }
          }
        }
      }
      JOINT Bip01_L_Thigh
      {
        OFFSET -2.85154 -1.24849 6.20577
        CHANNELS 6 Xposition Yposition Zposition Zrotation Xrotation Yrotation
        JOINT Bip01_L_Calf
        {
          OFFSET 6.73247 0 0
          CHANNELS 6 Xposition Yposition Zposition Zrotation Xrotation Yrotation
          JOINT Bip01_L_HorseLink
          {
            OFFSET 8.08524 0 0
            CHANNELS 6 Xposition Yposition Zposition Zrotation Xrotation Yrotation
            JOINT Bip01_L_Foot
            {
              OFFSET 8.97521 0 0
              CHANNELS 6 Xposition Yposition Zposition Zrotation Xrotation Yrotation
              JOINT BN_Toe_L_00
              {
                OFFSET 1.65461 0.933701 -1.02419
                CHANNELS 6 Xposition Yposition Zposition Zrotation Xrotation Yrotation
                JOINT BN_Toe_L_01
                {
                  OFFSET 3.51778 0 0
                  CHANNELS 6 Xposition Yposition Zposition Zrotation Xrotation Yrotation
                  End Site
                  {
                    OFFSET 0 0 0
                  }
                }
              }
              JOINT BN_Toe_L_10
              {
                OFFSET 1.07523 1.6422 -0.0221281
                CHANNELS 6 Xposition Yposition Zposition Zrotation Xrotation Yrotation
                JOINT BN_Toe_L_11
                {
                  OFFSET 4.09657 0 0
                  CHANNELS 6 Xposition Yposition Zposition Zrotation Xrotation Yrotation
                  End Site
                  {
                    OFFSET 0 0 0
                  }
                }
              }
              JOINT BN_Toe_L_30
              {
                OFFSET 1.58761 -0.234954 0.295135
                CHANNELS 6 Xposition Yposition Zposition Zrotation Xrotation Yrotation
                JOINT BN_Toe_L_31
                {
                  OFFSET 3.03847 0 0
                  CHANNELS 6 Xposition Yposition Zposition Zrotation Xrotation Yrotation
                  End Site
                  {
                    OFFSET 0 0 0
                  }
                }
              }
              JOINT BN_Toe_L_20
              {
                OFFSET 1.4731 1.01055 1.1673
                CHANNELS 6 Xposition Yposition Zposition Zrotation Xrotation Yrotation
                JOINT BN_Toe_L_21
                {
                  OFFSET 3.94897 0 0
                  CHANNELS 6 Xposition Yposition Zposition Zrotation Xrotation Yrotation
                  End Site
                  {
                    OFFSET 0 0 0
                  }
                }
              }
              JOINT Bip01_L_Toe0
              {
                OFFSET 2.04238 1.88276 0
                CHANNELS 6 Xposition Yposition Zposition Zrotation Xrotation Yrotation
                End Site
                {
                  OFFSET 0 0 0
                }
              }
            }
          }
        }
      }
      JOINT Bip01_Spine1
      {
        OFFSET 8.6167 -0.00679016 0
        CHANNELS 6 Xposition Yposition Zposition Zrotation Xrotation Yrotation
        JOINT BN_Wing_R_01
        {
          OFFSET 0.267445 -6.12421 -7.49305
          CHANNELS 6 Xposition Yposition Zposition Zrotation Xrotation Yrotation
          JOINT BN_Wing_R_02
          {
            OFFSET 14.7158 0 0
            CHANNELS 6 Xposition Yposition Zposition Zrotation Xrotation Yrotation
            JOINT BN_Wing_R_03
            {
              OFFSET 19.0858 0 0
              CHANNELS 6 Xposition Yposition Zposition Zrotation Xrotation Yrotation
              JOINT BN_Wing_R_05
              {
                OFFSET 2.68908 -0.270637 0.785261
                CHANNELS 6 Xposition Yposition Zposition Zrotation Xrotation Yrotation
                JOINT BN_Wing_R_06
                {
                  OFFSET 21.1083 0 0
                  CHANNELS 6 Xposition Yposition Zposition Zrotation Xrotation Yrotation
                  End Site
                  {
                    OFFSET 0 0 0
                  }
                }
              }
              JOINT BN_Wing_R_04
              {
                OFFSET 27.642 0 0
                CHANNELS 6 Xposition Yposition Zposition Zrotation Xrotation Yrotation
                End Site
                {
                  OFFSET 0 0 0
                }
              }
            }
          }
        }
        JOINT BN_Wing_L_01
        {
          OFFSET 0.267452 -6.12421 7.49305
          CHANNELS 6 Xposition Yposition Zposition Zrotation Xrotation Yrotation
          JOINT BN_Wing_L_02
          {
            OFFSET 14.7158 0 0
            CHANNELS 6 Xposition Yposition Zposition Zrotation Xrotation Yrotation
            JOINT BN_Wing_L_03
            {
              OFFSET 19.0858 0 0
              CHANNELS 6 Xposition Yposition Zposition Zrotation Xrotation Yrotation
              JOINT BN_Wing_L_05
              {
                OFFSET 2.68908 -0.270635 -0.785254
                CHANNELS 6 Xposition Yposition Zposition Zrotation Xrotation Yrotation
                JOINT BN_Wing_L_06
                {
                  OFFSET 21.1083 0 0
                  CHANNELS 6 Xposition Yposition Zposition Zrotation Xrotation Yrotation
                  End Site
                  {
                    OFFSET 0 0 0
                  }
                }
              }
              JOINT BN_Wing_L_04
              {
                OFFSET 27.642 0 1.14441e-005
                CHANNELS 6 Xposition Yposition Zposition Zrotation Xrotation Yrotation
                End Site
                {
                  OFFSET 0 0 0
                }
              }
            }
          }
        }
        JOINT Bip01_Neck
        {
          OFFSET 7.59958 -1.43237 0
          CHANNELS 6 Xposition Yposition Zposition Zrotation Xrotation Yrotation
          JOINT Bip01_Neck1
          {
            OFFSET 3.64749 -0.00262451 0
            CHANNELS 6 Xposition Yposition Zposition Zrotation Xrotation Yrotation
            JOINT Bip01_Neck2
            {
              OFFSET 3.32331 -0.00284576 0
              CHANNELS 6 Xposition Yposition Zposition Zrotation Xrotation Yrotation
              JOINT Bip01_Head
              {
                OFFSET 4.63256 -0.573471 0
                CHANNELS 6 Xposition Yposition Zposition Zrotation Xrotation Yrotation
                JOINT BN_Jaw
                {
                  OFFSET 1.05386 2.23561 0
                  CHANNELS 6 Xposition Yposition Zposition Zrotation Xrotation Yrotation
                  End Site
                  {
                    OFFSET 0 0 0
                  }
                }
              }
            }
          }
        }
      }
    }
  }
}
MOTION
Frames:	4
Frame Time:	0.0333333
-0.133723 94.2184 0 135.356 -90 178.179 0 0 0 -89.9947 9.57719 -89.9947 -4.6544 -2.06236 9.31323e-010 -8.12547 1.9485 179.532 10.228 -0.119785 3.68891 28.6033 80.8654 -27.8417 15.0421 -4.44089e-016 0 5.14665 -4.542 9.38256 10.2279 -0.119778 -3.68914 -138.507 78.4916 143.9 15.0421 0 3.8147e-006 -5.15014 4.54172 9.38269 3.04926 0.628765 -0.000789938 -8.20786 -1.26674e-010 5.4305e-012 -2.92877 -1.05768 -6.20579 -165.786 -21.4206 176.29 6.73246 -3.8147e-006 0 -117.413 -1.37803e-005 4.25794e-006 8.08522 3.8147e-006 -5.72205e-006 116.106 2.15416e-006 2.60956e-006 8.97519 -3.8147e-006 -1.90735e-006 -74.8203 -0.0604704 -24.4816 1.58763 -0.23497 -0.295149 146.154 0.76114 166.358 3.03848 0 -3.8147e-006 -45.9883 1.54907e-007 6.93002e-007 1.65461 0.933685 1.02414 71.7281 27.4578 -45.3024 3.51774 3.8147e-006 0 31.7752 2.4849e-006 3.6788e-006 1.4731 1.01062 -1.16707 66.6448 -8.00172 30.8802 3.94895 -1.42109e-014 0 32.8748 1.3859e-005 2.81129e-006 1.07522 1.64225 0.0223622 54.8099 -6.18648 -1.0778 4.09656 -7.6294e-006 1.19209e-007 56.2688 5.90569e-006 -8.64375e-006 2.04238 1.88276 -8.88178e-016 87.4729 -2.52844 27.7808 -2.92877 -1.05771 6.20577 -119.524 11.0838 171.284 6.73247 1.42109e-014 -9.53674e-007 -83.9793 -1.13723e-005 1.91699e-006 8.08524 3.55271e-015 9.53674e-007 113.362 7.16548e-006 1.47404e-005 8.97521 -1.42108e-014 1.90735e-006 -48.9876 4.93519 9.52307 1.65462 0.933708 -1.02418 66.714 -31.6813 42.8255 3.51777 0 0 47.7875 1.86334e-005 -1.0384e-005 1.07522 1.64219 -0.0221235 66.4582 -3.31651 6.53568 4.09657 7.10542e-015 -2.86102e-006 50.5759 1.65408e-005 -2.90899e-006 1.58763 -0.234947 0.295138 135.264 5.7028 -177.038 3.03847 3.81469e-006 9.53674e-007 -38.7373 8.52845e-006 7.55821e-006 1.47311 1.01056 1.1673 66.8811 5.45928 -10.7952 3.94897 -3.81469e-006 1.90735e-006 48.5268 2.15095e-006 9.43827e-007 2.04239 1.88277 1.19209e-007 120.306 0.489715 -30.702 8.61718 -0.0068512 2.54065e-006 -4.08905 9.6565e-011 -2.11528e-010 0.267456 -6.12425 -7.49305 -69.5951 -2.51832 27.042 14.7158 7.62939e-006 0 51.381 5.15706 -4.82037 19.0859 0 3.55271e-015 -36.6053 -2.24683 23.928 2.68911 -0.270637 0.785301 -43.8612 2.4697 4.79228 21.1082 -1.42108e-014 0 -1.32056 -2.34539 36.8282 27.642 -1.52588e-005 -7.62939e-006 -2.63525 -0.0479272 40.8152 0.267456 -6.12426 7.49305 -69.5951 2.51833 -27.042 14.7158 7.62939e-006 -7.62939e-006 51.381 -5.15707 4.82037 19.0858 9.53674e-007 3.8147e-006 -36.6053 2.24683 -23.928 2.68912 -0.270622 -0.785301 -43.8612 -2.46969 -4.79227 21.1083 7.62939e-006 -1.14441e-005 -1.3205 2.34544 -36.8282 27.642 -7.62939e-006 1.42109e-014 -2.63552 0.0476261 -40.8152 7.59942 -1.43241 -1.52402e-005 3.77414 7.60972e-017 2.30544e-015 3.64919 -0.00226212 2.54065e-006 31.3246 1.08367e-010 1.78063e-010 3.32334 -0.00289917 1.73472e-018 -4.46352 2.12833e-010 -1.24996e-010 4.63257 -0.573456 -9.31323e-010 -7.21592 1.16475e-017 -1.63066e-016 1.05387 2.23561 1.73472e-018 -79.0056 -0.0256653 -179.969 
-7.70361 103.38 -1.72737 92.7119 -81.1799 128.519 0 0 0 -89.7774 25.0328 -90.0604 -4.6544 -2.06236 9.31322e-010 -7.9449 1.94856 179.532 10.228 -0.119785 3.68891 31.3452 80.9368 -32.424 15.0421 -1.77636e-015 3.55271e-015 5.09805 -4.67912 5.68671 10.2279 -0.119778 -3.68914 -136.881 78.5798 140.132 15.0421 0 3.8147e-006 -5.09556 4.6168 6.54341 2.77346 1.41976 -0.00377767 13.8501 -0.604941 4.94623 -2.48535 -0.645919 -6.44833 -141.058 -16.901 177.543 6.73246 -3.8147e-006 0 -88.2259 -9.95416e-006 1.04375e-005 8.08522 3.8147e-006 -5.72205e-006 69.5071 -1.6692e-006 2.88974e-006 8.97519 -3.8147e-006 -1.90735e-006 -59.808 1.86841 -12.913 1.58763 -0.23497 -0.295149 148.824 0.374981 166.463 3.03848 4.9738e-014 -3.8147e-006 -45.9883 -1.85167e-006 5.23429e-007 1.65461 0.933685 1.02414 71.5321 28.1614 -44.2567 3.51774 3.8147e-006 0 30.9966 0.00100756 0.00318267 1.4731 1.01062 -1.16707 65.8011 -8.25241 29.9968 3.94896 1.42109e-014 2.25597e-013 32.1573 4.59016e-005 5.22331e-005 1.07522 1.64225 0.0223622 54.404 -6.17936 -1.12196 4.09656 -7.6294e-006 1.19209e-007 55.4954 5.3716e-006 -8.27958e-006 2.04238 1.88276 -3.88838e-009 87.5701 -2.50341 27.7726 -3.55661 -0.781854 5.91723 -104.301 17.6288 162.731 6.73247 0 -9.53674e-007 -53.8467 -5.37166e-006 1.08238e-006 8.08524 0 9.53674e-007 87.8973 -2.02783e-007 1.16908e-005 8.97521 -2.84217e-014 1.90735e-006 -59.5697 -6.17509 12.5002 1.65462 0.933708 -1.02418 65.3063 -32.6256 41.7808 3.51777 0 -1.42109e-014 47.0838 2.00635e-005 -8.97203e-006 1.07522 1.64219 -0.0221235 64.7933 -3.59579 6.39404 4.09657 0 -2.86102e-006 49.7084 1.01165e-005 -1.09435e-005 1.58763 -0.234947 0.295138 138.764 5.7043 -177.344 3.03847 3.81469e-006 9.53674e-007 -38.0347 9.39885e-006 8.31423e-006 1.47311 1.01056 1.1673 65.5132 5.68525 -10.3907 3.94897 -3.81469e-006 1.90735e-006 47.8147 5.44429e-007 -1.87e-006 2.04239 1.88277 1.25771e-007 120.493 0.451639 -30.7071 8.61718 -0.0068512 2.54065e-006 14.577 -1.71123 3.32858 0.267456 -6.12425 -7.49305 -91.7132 4.4517 59.9567 14.7158 7.62939e-006 9.9476e-014 51.3836 5.15929 -4.4023 19.0859 1.63425e-013 -7.10543e-015 -36.4738 -2.5116 -13.6938 2.68911 -0.270638 0.785301 -52.0117 1.73863 -0.942667 21.1082 -2.84217e-014 -2.84217e-014 -1.37473 -2.51072 8.80907 27.642 -1.52588e-005 -7.6294e-006 -2.6808 -0.0610871 -3.56629 0.267456 -6.12426 7.49305 -91.7131 -4.45169 -59.9567 14.7158 7.62939e-006 -7.62939e-006 51.3806 -5.15864 4.3546 19.0858 9.53674e-007 3.8147e-006 -36.4738 2.51158 13.6938 2.68912 -0.270622 -0.785301 -52.0118 -1.7386 0.94268 21.1083 7.62939e-006 -1.14441e-005 -1.37467 2.51076 -8.81202 27.642 -7.62939e-006 -3.12639e-013 -2.6808 0.0610927 3.56628 7.59942 -1.43241 -1.52402e-005 6.07077 -5.84322 8.30654 3.64919 -0.00226212 2.54065e-006 33.3718 0.230803 0.749661 3.32334 -0.00289917 2.0961e-012 -3.74015 -0.670436 0.740294 4.63257 -0.573456 -4.27256e-010 -6.07635 0.0294655 -3.28637 1.05387 2.23561 -6.73163e-010 -79.1434 -0.0184479 -179.97 
-12.3336 108.352 -2.82163 102.151 -78.717 128.581 0 0 0 -89.5501 30.4933 -90.197 -4.6544 -2.06236 9.31322e-010 -7.5015 1.9486 179.531 10.228 -0.119785 3.68891 38.1293 80.8483 -43.6382 15.0421 -7.10543e-015 9.32587e-015 4.93481 -4.94342 -3.39431 10.2279 -0.119778 -3.68914 -132.785 78.5755 130.851 15.0421 0 3.8147e-006 -4.95317 4.76509 -0.485327 2.62636 1.67781 -0.0105181 19.6228 -1.82958 5.83001 -2.38933 -0.49703 -6.49177 -118.555 -14.8578 174.323 6.73246 -3.8147e-006 -7.10543e-015 -65.8589 3.53513e-006 9.51024e-006 8.08522 3.8147e-006 -5.72205e-006 43.1384 -2.77899e-006 1.84771e-006 8.97519 -3.8147e-006 -1.90735e-006 -60.148 -2.13735 -5.22565 1.58763 -0.23497 -0.295149 153.99 -0.482148 166.857 3.03848 1.54987e-013 -3.8147e-006 -45.9883 -2.54284e-006 4.59233e-007 1.65461 0.933685 1.02414 71.0088 29.4386 -41.8031 3.51774 3.8147e-006 7.10543e-015 28.6374 -0.00502192 -0.00895472 1.4731 1.01062 -1.16707 63.9113 -8.7541 27.7334 3.94895 0 2.2915e-013 30.9427 -0.000828381 -0.0014033 1.07522 1.64225 0.0223622 53.73 -6.16169 -1.19142 4.09656 -7.6294e-006 1.19209e-007 53.3485 6.20094e-006 -8.06176e-006 2.04238 1.88276 -2.96433e-009 85.678 -2.9936 27.9219 -3.64927 -0.897506 5.85001 -90.8045 17.6965 155.373 6.73247 2.84217e-014 -9.53674e-007 -35.0518 -6.33596e-006 1.06952e-006 8.08524 1.42109e-014 9.53674e-007 71.1827 -1.62575e-006 1.0207e-005 8.97521 -2.84217e-014 1.90735e-006 -72.0772 -14.6257 9.52121 1.65462 0.933708 -1.02418 62.3605 -34.4411 39.425 3.51777 7.10542e-015 1.42109e-014 45.8777 1.2145e-006 -5.76959e-006 1.07522 1.64219 -0.0221234 60.5792 -4.1061 6.08481 4.09657 -1.42108e-014 -2.86102e-006 47.2687 4.30997e-006 -9.0221e-006 1.58763 -0.234947 0.295138 145.899 5.6202 -178.038 3.03847 3.81469e-006 9.53674e-007 -36.8731 7.04364e-006 9.5702e-006 1.47311 1.01056 1.1673 62.1942 6.19173 -9.7881 3.94897 -3.81469e-006 1.90735e-006 46.115 -3.52219e-006 -1.48618e-006 2.04239 1.88277 2.26907e-007 116.861 1.18803 -30.5818 8.61718 -0.0068512 2.54065e-006 15.947 -2.99573 5.38711 0.267456 -6.12425 -7.49305 -101.35 -5.35034 104.59 14.7158 7.62939e-006 -1.06581e-013 51.3815 5.1618 -3.50772 19.0859 2.84217e-013 0 -38.6518 -2.11253 -31.1563 2.68911 -0.270638 0.785301 -56.6055 1.36387 -3.80293 21.1082 -2.84217e-014 -2.84217e-014 -1.30843 -2.30971 -13.4638 27.642 -1.52588e-005 -7.6294e-006 -2.70563 -0.0530698 -28.0951 0.267456 -6.12426 7.49305 -101.35 5.35036 -104.59 14.7158 7.62939e-006 -7.62939e-006 51.383 -5.16189 3.56983 19.0858 9.53674e-007 3.8147e-006 -38.6518 2.11246 31.1563 2.68912 -0.270622 -0.785301 -56.6056 -1.3638 3.80299 21.1083 7.62939e-006 -1.14441e-005 -1.30843 2.3097 13.464 27.642 -7.62939e-006 -1.28786e-012 -2.70562 0.0531374 28.0951 7.59942 -1.43241 -1.52402e-005 9.75058 -8.97869 9.83902 3.64919 -0.00226212 2.54065e-006 29.3418 -0.234172 0.345026 3.32334 -0.00289917 3.80496e-012 2.99365 -0.20224 2.83573 4.63257 -0.573456 3.0639e-010 -6.67359 -2.82151 1.88207 1.05387 2.23561 -6.15261e-009 -79.2786 -0.0113678 -179.972 
-14.9052 110.436 -3.4848 122.162 -81.1397 136.165 0 0 0 -89.3444 27.874 -90.3416 -4.6544 -2.06236 9.31322e-010 -6.91137 1.94851 179.532 10.228 -0.119785 3.68891 46.101 80.2098 -57.4509 15.0421 0 7.54951e-015 4.64189 -5.04372 -15.4889 10.2279 -0.119778 -3.68914 -127.797 78.1085 119.025 15.0421 7.10543e-015 3.8147e-006 -4.76429 4.83754 -10.1022 2.69749 1.555 -0.0179603 10.2119 -4.05462 1.87685 -2.72494 -0.611206 -6.33989 -95.1855 -17.9105 170.846 6.73246 -3.8147e-006 -7.10543e-015 -49.6949 6.35481e-006 7.88561e-006 8.08522 3.8147e-006 -5.72205e-006 37.7227 -2.45702e-006 2.20282e-006 8.97519 -3.8147e-006 -1.90735e-006 -75.6056 -8.81667 -3.01308 1.58763 -0.23497 -0.295149 160.856 -1.71232 167.351 3.03848 2.62013e-013 -3.8147e-006 -45.9883 -2.24835e-006 5.97849e-007 1.65461 0.933685 1.02414 69.9761 31.1961 -38.1544 3.51774 3.8147e-006 -7.10543e-015 25.6685 -0.0180717 -0.0338652 1.4731 1.01062 -1.16707 61.2507 -9.43256 24.5115 3.94895 0 2.27374e-013 28.9738 -0.00313532 -0.00568527 1.07522 1.64225 0.0223622 52.8433 -6.13734 -1.28248 4.09656 -7.6294e-006 1.19209e-007 50.5697 6.89051e-006 -7.85248e-006 2.04238 1.88276 -3.91721e-009 76.2734 -5.48808 28.4385 -3.12943 -1.48801 6.03297 -79.5518 13.202 152.655 6.73247 4.26326e-014 -9.53674e-007 -28.0408 -7.18279e-006 1.08587e-006 8.08524 0 9.53674e-007 63.3464 7.11686e-006 1.30347e-005 8.97521 2.84217e-014 1.90735e-006 -89.6815 -18.3339 1.99664 1.65462 0.933708 -1.02418 58.1761 -36.8295 36.0652 3.51777 1.42108e-014 1.42109e-014 43.9098 6.37424e-006 1.6421e-006 1.07522 1.64219 -0.0221233 54.6021 -4.75868 5.59543 4.09657 0 -2.86102e-006 44.1164 9.50022e-006 -1.8604e-007 1.58763 -0.234947 0.295138 155.52 5.49037 -178.984 3.03847 3.81469e-006 9.53674e-007 -35.0131 1.88754e-006 8.54283e-006 1.47311 1.01056 1.1673 57.5229 6.89254 -9.05694 3.94897 -3.81469e-006 1.90735e-006 43.7097 7.12744e-006 5.89239e-006 2.04239 1.88277 3.4405e-007 98.7376 4.65436 -29.2757 8.61718 -0.0068512 2.54065e-006 -2.30465 -4.85919 5.38401 0.267456 -6.12425 -7.49305 -81.5151 -7.67949 145.315 14.7158 7.62939e-006 -2.22045e-014 51.3836 5.16189 -2.62879 19.0859 3.12639e-013 -1.77636e-015 -48.9361 -1.0966 -12.2076 2.68911 -0.270637 0.785301 -56.2674 1.37847 -1.86189 21.1082 -2.84217e-014 -2.4869e-014 -1.30573 -2.29766 -17.2675 27.642 -1.52588e-005 -7.62939e-006 -2.69981 -0.0565038 -23.5594 0.267456 -6.12426 7.49305 -81.5151 7.67949 -145.315 14.7158 7.62939e-006 -7.62939e-006 51.3827 -5.16122 2.68809 19.0858 9.53674e-007 3.8147e-006 -48.9361 1.0966 12.2076 2.68912 -0.270622 -0.785301 -56.2674 -1.37848 1.86188 21.1083 7.62938e-006 -1.14441e-005 -1.30573 2.29766 17.2675 27.642 -7.62939e-006 -4.44089e-014 -2.6998 0.0564699 23.5594 7.59942 -1.43241 -1.52402e-005 14.7695 -10.0343 3.64053 3.64919 -0.00226212 2.54065e-006 18.1946 -1.30343 -1.57537 3.32334 -0.00289917 -2.2844e-012 17.4024 2.27294 6.2815 4.63257 -0.573456 -1.05625e-009 -7.49932 -12.5977 13.2817 1.05387 2.23561 3.83958e-008 -79.4152 -0.00421143 -179.973 
